<?xml version="1.0" standalone="no"?>
<!DOCTYPE svg PUBLIC "-//W3C//DTD SVG 20010904//EN"
 "http://www.w3.org/TR/2001/REC-SVG-20010904/DTD/svg10.dtd">
<svg version="1.0" xmlns="http://www.w3.org/2000/svg"
 width="892.000000pt" height="472.000000pt" viewBox="0 0 892.000000 472.000000"
 preserveAspectRatio="xMidYMid meet">

<g transform="translate(0.000000,472.000000) scale(0.100000,-0.100000)"
fill="#000000" stroke="none">
<path d="M1940 4689 c-378 -44 -764 -198 -1068 -426 -95 -72 -274 -243 -357
-343 -279 -335 -457 -769 -494 -1207 -12 -140 -1 -396 24 -538 52 -300 167
-591 329 -833 102 -153 173 -238 318 -377 344 -332 774 -531 1263 -585 71 -8
761 -10 2375 -8 l2275 4 115 22 c462 89 841 286 1155 598 178 177 304 353 420
585 195 393 262 819 199 1259 -101 709 -551 1329 -1189 1639 -195 95 -360 149
-585 193 l-115 22 -2295 2 c-1262 1 -2329 -2 -2370 -7z m4071 -694 c91 -32
164 -101 208 -195 22 -47 26 -68 26 -145 -1 -77 -5 -98 -28 -146 -33 -68 -118
-152 -184 -181 -194 -86 -432 30 -488 237 -75 277 195 525 466 430z m-3775 6
c77 -15 158 -48 225 -93 94 -63 159 -150 250 -335 44 -89 97 -188 118 -220 21
-32 163 -186 315 -342 356 -365 460 -494 595 -739 75 -136 184 -376 221 -488
32 -94 35 -100 126 -195 89 -92 99 -106 95 -136 -1 -7 23 -31 54 -54 98 -74
96 -101 -8 -102 -49 -1 -72 4 -99 21 -26 16 -37 19 -46 10 -7 -7 -30 -11 -52
-10 -23 2 -40 -2 -40 -8 0 -15 -47 -12 -83 6 -56 29 -93 63 -138 125 -47 65
-64 76 -203 133 -49 20 -111 48 -137 62 l-49 24 0 -64 c0 -94 -17 -162 -51
-201 -35 -40 -37 -65 -5 -102 23 -26 29 -28 139 -33 94 -4 119 -9 136 -24 25
-22 27 -46 5 -46 -8 0 -32 -10 -53 -22 l-37 -21 -69 21 c-101 32 -117 30 -224
-35 -98 -59 -203 -93 -209 -68 -4 16 35 79 74 121 l31 33 -31 -5 c-17 -3 -66
-21 -108 -40 -77 -35 -77 -35 -113 -18 -41 19 -84 21 -114 5 -26 -15 -31 -14
-31 4 0 20 57 55 90 55 l25 1 -25 14 c-14 8 -52 14 -86 15 -52 0 -73 -6 -152
-45 -103 -51 -119 -53 -155 -25 -28 22 -52 18 -68 -11 -15 -28 -29 -23 -29 11
0 19 -7 33 -20 40 -11 6 -20 17 -20 25 0 20 -49 19 -74 0 -47 -36 -49 -3 -2
48 19 21 43 37 56 37 12 0 44 8 70 17 45 16 52 16 127 0 43 -9 108 -17 145
-17 62 0 69 2 102 34 44 41 45 61 4 144 -29 59 -32 75 -38 193 -6 146 -3 140
-130 246 -117 96 -247 290 -301 446 -15 45 -51 197 -79 337 -57 281 -82 367
-142 483 -30 58 -45 77 -56 72 -84 -32 -177 -24 -245 21 -21 14 -43 22 -48 18
-17 -10 -39 -70 -39 -106 l-1 -33 -24 28 c-37 42 -59 128 -52 209 9 100 45
173 126 252 46 44 71 77 79 104 29 97 119 185 221 216 53 17 186 20 257 7z
m3398 -854 c-4 -7 -50 -75 -102 -151 -94 -139 -94 -140 -77 -165 9 -14 26 -47
38 -73 l21 -48 273 0 273 0 0 -90 0 -90 -272 -1 -273 0 -38 -77 -38 -77 102
-149 c56 -81 97 -151 92 -155 -6 -3 -40 -26 -77 -50 -47 -31 -70 -41 -75 -33
-4 7 -49 75 -101 151 -93 137 -95 140 -125 133 -16 -4 -64 -7 -105 -7 -60 1
-87 6 -132 27 -73 34 -142 103 -176 176 -37 80 -42 194 -12 274 28 75 101 155
177 193 54 28 66 30 172 30 l113 0 99 148 100 147 75 -50 c47 -33 72 -55 68
-63z m762 -42 l99 -145 55 7 c87 12 160 5 219 -23 79 -36 118 -69 161 -134
116 -181 51 -411 -145 -513 -55 -29 -68 -31 -155 -32 -85 0 -101 3 -154 29
-196 96 -265 335 -149 518 12 21 23 40 23 44 0 3 -45 71 -101 151 -74 108 -97
148 -87 154 7 4 38 26 68 48 30 22 58 41 61 41 3 0 50 -65 105 -145z m-361
-1199 c76 -34 139 -97 178 -175 29 -60 32 -73 31 -156 -1 -110 -21 -162 -94
-239 -177 -187 -477 -137 -587 99 -24 51 -28 73 -28 145 0 76 4 93 33 152 47
96 141 172 246 199 54 14 162 2 221 -25z"/>
</g>
</svg>
