<?xml version="1.0" standalone="no"?>
<!DOCTYPE svg PUBLIC "-//W3C//DTD SVG 20010904//EN"
 "http://www.w3.org/TR/2001/REC-SVG-20010904/DTD/svg10.dtd">
<svg version="1.0" xmlns="http://www.w3.org/2000/svg"
 width="400.000000pt" height="400.000000pt" viewBox="0 0 400.000000 400.000000"
 preserveAspectRatio="xMidYMid meet">

<g transform="translate(0.000000,400.000000) scale(0.100000,-0.100000)"
fill="#000000" stroke="none">
<path d="M0 2000 l0 -2000 2000 0 2000 0 0 2000 0 2000 -2000 0 -2000 0 0
-2000z m1144 1335 l46 -35 0 35 c0 19 5 35 10 35 45 0 149 -92 204 -178 40
-64 82 -204 100 -332 16 -115 46 -413 46 -457 l0 -23 268 0 c401 0 542 -21
726 -107 115 -54 159 -61 242 -39 112 29 159 19 220 -46 43 -45 60 -82 74
-157 21 -118 -4 -196 -77 -237 l-38 -21 -3 -101 c-2 -70 2 -120 13 -159 9 -32
18 -107 19 -168 2 -64 11 -131 20 -160 20 -64 20 -165 0 -213 -10 -25 -16 -76
-18 -157 -1 -76 -7 -130 -16 -148 -12 -26 -17 -27 -82 -27 -65 0 -68 1 -58 20
6 11 19 24 29 29 15 9 20 28 26 106 10 143 2 187 -47 233 -22 20 -58 59 -79
85 -43 54 -38 61 -60 -67 -13 -76 -63 -184 -106 -232 -22 -24 -29 -40 -28 -70
3 -72 0 -74 -76 -74 -38 0 -69 4 -69 9 0 26 22 62 43 70 14 6 35 33 55 75 77
157 65 277 -37 389 -54 59 -64 84 -64 150 0 49 -3 57 -16 52 -117 -46 -378
-68 -508 -42 -40 7 -75 12 -78 9 -3 -3 -5 -30 -5 -61 0 -98 -19 -240 -37 -279
-12 -27 -19 -76 -23 -177 -4 -112 -9 -148 -25 -180 l-20 -40 -77 -3 -78 -3 11
27 c5 15 26 45 46 67 l36 40 -6 112 c-5 100 -20 175 -32 163 -3 -2 -18 -51
-35 -107 -33 -112 -81 -224 -107 -253 -12 -13 -31 -18 -70 -18 -47 0 -53 2
-53 21 0 12 13 34 30 49 69 65 94 175 80 353 -6 71 -13 133 -15 137 -2 4 -5
68 -6 143 l-1 135 -57 36 c-83 51 -176 149 -213 224 -28 56 -32 75 -36 170 -3
82 -9 121 -28 170 -20 49 -27 92 -34 205 -5 78 -14 165 -20 192 -17 76 4 251
36 302 19 30 19 93 -1 93 -31 0 -128 44 -161 72 -28 25 -34 37 -34 71 0 54 30
87 80 87 20 0 56 10 80 23 l45 22 0 70 c0 39 -3 82 -8 98 -10 36 2 34 57 -8z"/>
</g>
</svg>
