<svg width="256px" height="288px" viewBox="0 0 256 288" xmlns="http://www.w3.org/2000/svg">
    <g>
        <path d="M108.6,254.4c9.1,0,16.4,7.4,16.4,16.4s-7.4,16.4-16.4,16.4-16.4-7.4-16.4-16.4,7.4-16.4,16.4-16.4Zm91.2-30l16.2,4.8-12.9,43.5c-1.1,3.8-4.7,6.3-8.6,6l-4-0.3-0.1,0.1-41.4-2.9,1.1-17,27.8,1.9-18.2-26.3,13.9-9.7,18.2,26.3,7.9-26.7Zm-176.8-30.1,16.9,1.2-2,27.8,26.2-18.2,9.7,13.9-26.2,18.2,26.8,7.9-4.8,16.3-43.7-12.9c-3.8-1.1-6.3-4.7-6-8.6l3.2-45.4Zm109.1-23.7,30.5,36.8-13.7,11.4-18.2-21.9-5.9,33.7-17.6-3.1,5.9-33.7-24.4,14.4-9.1-15.4,41.1-24.2c3.8-2.2,8.6-1.4,11.4,2.4Zm85.4-24.7,15.2-8.3,22.2,40.8c1.9,3.6,1.1,8-1.9,10.7l-4.1,2.7-32.1,28.8-11.4-13.1,21.5-19.5-32.1-5.8,3.1-17.6,32.1,5.8-13.7-24.9Zm-179.7-42.7,11.5,13.2-21.3,18.7,32.2,5.8-3,17.1-32.2-5.6,13.8,24.6-15.2,8.4-22.6-40.7c-2-3.5-1.3-8.1,1.9-10.8l34.9-30.7Zm108.7-13.4,30.4,36.8-13.8,11.4-18.1-21.9-5.9,33.7-17.6-3.1,5.9-33.7-24.4,14.4-9.1-15.4,37.4-21.9c3.8-2.2,8.6-1.3,11.4,2.5Zm54.2-18.1,6.7-16,43,17.8c3.7,1.5,5.8,5.6,5.1,9.7l-1.2,6.8-7.3,41.8-17.1-2.8,5.3-27.7-28.5,15.8-8.4-15.2,28.6-15.8-26.2-10.9Zm-81.9-31.6,0.7,17.3-28.4,1.2,21.4,24.5-13,11.4-21.5-24.5-5,27.4-17.1-2.8,8.2-45.8c0.7-4.1,4.2-7.1,8.4-7.2l4.1-0.2,42.4-1.7Zm58.1-37.3,30.2,36.9-13.8,11.4-18.1-21.9-5.9,33.7-17.6-3.1,5.9-33.7-24.4,14.4-9.1-15.4,41.2-24.3c3.8-2.2,8.6-1.4,11.4,2.4Z" fill="#201D1E"/>
    </g>
</svg>
