<?xml version="1.0" standalone="no"?>
<!DOCTYPE svg PUBLIC "-//W3C//DTD SVG 20010904//EN"
 "http://www.w3.org/TR/2001/REC-SVG-20010904/DTD/svg10.dtd">
<svg version="1.0" xmlns="http://www.w3.org/2000/svg"
 width="280.000000pt" height="280.000000pt" viewBox="0 0 280.000000 280.000000"
 preserveAspectRatio="xMidYMid meet">

<g transform="translate(0.000000,280.000000) scale(0.100000,-0.100000)"
fill="#000000" stroke="none">
<path d="M1140 2198 c-140 -82 -273 -160 -295 -172 -22 -12 -88 -50 -147 -85
l-108 -63 0 -472 0 -472 197 -115 c108 -62 202 -116 207 -118 6 -2 22 -12 36
-21 14 -9 50 -31 80 -47 30 -17 96 -54 145 -83 50 -29 102 -60 118 -67 l27
-14 0 -235 c0 -218 1 -234 18 -234 10 0 92 43 182 96 91 52 172 100 181 104
16 9 24 6 159 -68 36 -19 105 -57 154 -84 56 -30 101 -48 123 -48 22 0 65 18
131 56 53 31 113 66 132 77 19 11 63 36 98 55 l62 36 0 943 c0 770 -2 943 -13
943 -7 0 -40 -16 -73 -36 -64 -39 -119 -70 -204 -117 -30 -17 -72 -41 -93 -54
l-38 -24 -77 43 c-42 24 -85 47 -94 53 -32 19 -273 157 -318 183 -25 13 -49
28 -55 32 -5 4 -26 17 -45 28 -19 11 -79 45 -134 76 -54 31 -99 56 -100 55 0
-1 -116 -68 -256 -151z m425 -436 c33 -19 78 -45 100 -57 22 -13 59 -34 83
-47 l42 -25 -112 -65 c-62 -37 -129 -75 -148 -86 -19 -11 -55 -31 -80 -45
l-45 -26 -5 -229 -5 -229 -95 55 c-52 30 -111 64 -130 74 -19 11 -63 36 -98
56 l-62 36 2 229 3 229 195 113 194 112 51 -30 c27 -17 77 -46 110 -65z"/>
</g>
</svg>
